# xmcd
#
# Track frame offsets: 
#        150
#        18920
#        39938
#        59350
#        76817
#        87881
#        102959
#        124818
#        141654
#        156163
#        173421
#        199065
#
# Disc length: 2848 seconds
#
# Revision: 4
# Processed by: cddbd v1.5.2PL0 Copyright (c) Steve Scherf et al.
# Submitted via: ExactAudioCopy v0.99pb4
#
DISCID=930b1e0c
DTITLE=Lambchop - No You C'mon
DYEAR=2004
DGENRE=Indie
TTITLE0=Sunrise
TTITLE1=Low Ambition
TTITLE2=There's Still Time
TTITLE3=Nothing Adventureous Please
TTITLE4=The Problem
TTITLE5=Shang A Dang Dang
TTITLE6=About My Lighter
TTITLE7=Under A Dream Of A Lie
TTITLE8=Jan 24
TTITLE9=The Gusher
TTITLE10=Listen
TTITLE11=The Producer
EXTD=
EXTT0=
EXTT1=
EXTT2=
EXTT3=
EXTT4=
EXTT5=
EXTT6=
EXTT7=
EXTT8=
EXTT9=
EXTT10=
EXTT11=
PLAYORDER=
